#tb 0: 1/600
0,          0,          0,        1,    21600, 0x845098fc
0,         60,         60,        1,    21600, 0xc28e8bf0
0,        120,        120,        1,    21600, 0x2f418fb4
0,        180,        180,        1,    21600, 0x051d7a0e
0,        240,        240,        1,    21600, 0x1b36aa7c
0,        300,        300,        1,    21600, 0xb9e2ad38
0,        360,        360,        1,    21600, 0x8dc99b60
0,        420,        420,        1,    21600, 0xa3fa789a
0,        480,        480,        1,    21600, 0x1fdbade2
0,        540,        540,        1,    21600, 0x4f4ac164
0,        600,        600,        1,    21600, 0x0ea5cb50
0,        660,        660,        1,    21600, 0xfb659528
0,        720,        720,        1,    21600, 0xac5790f8
0,        780,        780,        1,    21600, 0x9762beb4
0,        840,        840,        1,    21600, 0x29b0da0a
0,        900,        900,        1,    21600, 0x6d88b0da
0,        960,        960,        1,    21600, 0x687b8efa
0,       1020,       1020,        1,    21600, 0xcd726220
0,       1080,       1080,        1,    21600, 0xa1766598
0,       1140,       1140,        1,    21600, 0xff4b8074
0,       1200,       1200,        1,    21600, 0x845098fc
0,       1260,       1260,        1,    21600, 0xdb259e08
0,       1320,       1320,        1,    21600, 0xb6bda5a0
0,       1380,       1380,        1,    21600, 0xbb998962
0,       1440,       1440,        1,    21600, 0x28aa7b7c
0,       1500,       1500,        1,    21600, 0x1ad1a15c
0,       1560,       1560,        1,    21600, 0xb535a128
0,       1620,       1620,        1,    21600, 0x4dbf968a
0,       1680,       1680,        1,    21600, 0xfe90a8d6
0,       1740,       1740,        1,    21600, 0xf63fabf0
0,       1800,       1800,        1,    21600, 0xd6fabe58
0,       1860,       1860,        1,    21600, 0x172eb09c
0,       1920,       1920,        1,    21600, 0x44f8a8fe
0,       1980,       1980,        1,    21600, 0x29429a06
0,       2040,       2040,        1,    21600, 0xb12f8cc4
0,       2100,       2100,        1,    21600, 0xd0c78cb4
0,       2160,       2160,        1,    21600, 0x97e17e0c
0,       2220,       2220,        1,    21600, 0xf8ac6700
0,       2280,       2280,        1,    21600, 0xf9c17c94
0,       2340,       2340,        1,    21600, 0xb10e8c54
